<svg width="55" height="55" viewBox="0 0 55 55" fill="none" xmlns="http://www.w3.org/2000/svg">
<rect x="0.453278" width="54.5467" height="54.5467" rx="27.2734" fill="#F3849F"/>
<path fill-rule="evenodd" clip-rule="evenodd" d="M34.7817 16.9039H19.5352C18.3372 16.9039 17.3571 17.884 17.3571 19.082V34.3285C17.3571 35.5265 18.3372 36.5066 19.5352 36.5066H34.7817C35.9797 36.5066 36.9598 35.5265 36.9598 34.3285V19.082C36.9598 17.884 35.9797 16.9039 34.7817 16.9039ZM33.6927 21.8045H28.2475V23.9826H33.6927V21.8045ZM33.6927 29.4278H28.2475V31.6059H33.6927V29.4278ZM19.5351 34.3285H34.7817V19.0819H19.5351V34.3285ZM26.0694 20.171H20.6242V25.6162H26.0694V20.171ZM21.7132 24.5271H24.9804V21.26H21.7132V24.5271ZM26.0694 27.7942H20.6242V33.2394H26.0694V27.7942ZM21.7132 32.1504H24.9804V28.8833H21.7132V32.1504Z" fill="white"/>
</svg>
