<svg width="27" height="27" viewBox="0 0 27 27" fill="none" xmlns="http://www.w3.org/2000/svg">
<path fill-rule="evenodd" clip-rule="evenodd" d="M20.7817 3.90387H5.53517C4.33722 3.90387 3.35709 4.88401 3.35709 6.08195V21.3285C3.35709 22.5265 4.33722 23.5066 5.53517 23.5066H20.7817C21.9797 23.5066 22.9598 22.5265 22.9598 21.3285V6.08195C22.9598 4.88401 21.9797 3.90387 20.7817 3.90387ZM19.6927 8.80452H14.2475V10.9826H19.6927V8.80452ZM19.6927 16.4278H14.2475V18.6059H19.6927V16.4278ZM5.53516 21.3285H20.7817V6.08194H5.53516V21.3285ZM12.0694 7.17096H6.62421V12.6162H12.0694V7.17096ZM7.71326 11.5271H10.9804V8.25998H7.71326V11.5271ZM12.0694 14.7942H6.62421V20.2394H12.0694V14.7942ZM7.71326 19.1504H10.9804V15.8833H7.71326V19.1504Z" fill="white"/>
</svg>
